<svg width="500" height="498" viewBox="0 0 500 498" fill="none" xmlns="http://www.w3.org/2000/svg">
<path fill-rule="evenodd" clip-rule="evenodd" d="M459.626 80.6318C459.626 53.9571 440.475 21.1267 417.22 8.81524C401.489 -0.760303 361.819 -2.8122 343.352 4.02747C337.88 6.07937 327.62 12.919 320.781 18.3908C312.573 25.2305 292.738 30.0182 266.747 31.3862C235.969 32.0701 213.398 38.2258 182.619 53.2731C143.633 72.4242 90.2837 120.302 90.2837 135.349C90.2837 138.769 101.227 143.557 114.907 146.293C136.793 149.713 142.949 147.661 161.416 130.561C189.459 103.887 216.818 90.2074 255.804 84.7356C286.582 79.9478 287.266 80.6318 291.37 100.467C296.842 123.722 324.885 152.448 353.611 163.392C399.437 180.491 459.626 133.981 459.626 80.6318ZM499.98 246.152C499.98 232.473 494.508 205.114 488.353 184.595C481.513 164.076 473.305 146.293 469.886 144.925C465.782 144.241 455.522 151.08 447.315 161.34C432.267 177.755 431.583 182.543 438.423 205.114C448.683 239.312 447.999 264.619 435.003 302.237C422.008 340.539 419.272 342.591 393.965 335.068C365.923 327.544 335.828 337.12 312.573 361.742C295.474 380.21 292.054 388.417 292.738 417.144C293.422 460.918 319.413 491.012 362.503 496.484C420.64 504.008 461.678 465.705 458.942 407.568C457.574 388.417 461.678 370.634 467.834 360.374C483.565 337.12 500.664 274.879 499.98 246.152ZM165.52 247.52C165.52 223.581 161.416 213.321 142.949 193.486C90.2837 136.033 0 170.916 0 248.888C0 285.822 15.7312 309.761 48.5617 325.492C62.925 332.332 81.3921 349.431 90.9677 365.162C123.114 416.46 190.143 459.55 247.596 465.705C264.011 467.073 271.535 465.021 270.851 458.866C270.167 454.762 269.483 443.134 269.483 433.559C268.115 421.248 263.327 415.776 249.648 412.356C209.294 404.148 177.148 384.997 151.157 355.587C129.27 330.964 125.166 323.44 132.69 317.285C153.209 302.237 165.52 275.563 165.52 247.52Z" fill="white"/>
</svg>
