<?xml version="1.0" encoding="UTF-8" standalone="no"?>
<!DOCTYPE svg PUBLIC "-//W3C//DTD SVG 1.1//EN" "http://www.w3.org/Graphics/SVG/1.1/DTD/svg11.dtd">
<svg xmlns="http://www.w3.org/2000/svg" version="1.1" viewBox="0 0 1024 1024">
<path fill="#2b2a29" d="
  M 619.23 328.20
  Q 753.08 328.31 886.90 328.23
  A 0.44 0.44 -0.1 0 1 887.34 328.67
  C 887.18 537.98 887.28 747.30 887.29 956.61
  Q 887.29 966.48 886.17 971.30
  C 882.43 987.45 869.56 1000.32 853.75 1004.36
  Q 848.34 1005.75 838.01 1005.75
  Q 513.10 1005.75 188.20 1005.75
  Q 175.18 1005.75 169.43 1004.26
  C 154.06 1000.28 141.69 987.73 137.65 972.29
  Q 136.25 966.94 136.25 956.45
  Q 136.25 510.60 136.25 64.75
  C 136.25 39.27 157.82 20.83 182.75 20.82
  Q 375.62 20.74 568.51 20.75
  A 0.49 0.49 0.6 0 1 569.00 21.24
  Q 569.00 147.66 569.00 274.26
  Q 569.00 288.46 570.34 294.13
  C 574.07 309.94 586.98 323.11 603.00 326.97
  Q 608.07 328.19 619.23 328.20
  Z
  M 222.46 595.78
  C 227.32 630.31 247.83 661.30 280.08 675.44
  C 307.26 687.36 339.06 687.64 368.00 682.52
  Q 382.57 679.94 396.04 673.71
  A 0.78 0.77 -12.7 0 0 396.49 673.01
  L 396.49 629.99
  A 0.34 0.33 -14.7 0 0 395.99 629.70
  C 365.10 647.10 317.74 652.62 290.90 624.27
  C 272.43 604.75 268.49 576.01 273.28 550.51
  C 279.09 519.55 302.25 497.50 333.67 494.01
  Q 366.31 490.38 396.11 506.44
  A 0.26 0.25 14.6 0 0 396.49 506.22
  L 396.48 460.53
  A 0.72 0.70 -80.1 0 0 396.02 459.86
  C 376.25 452.35 353.46 450.44 332.52 451.55
  C 296.97 453.43 266.32 468.22 244.59 496.59
  C 222.94 524.87 217.57 561.01 222.46 595.78
  Z
  M 426.42 506.92
  C 420.97 544.59 444.71 569.14 476.87 582.60
  C 490.10 588.13 503.91 593.83 515.83 601.89
  C 525.26 608.28 531.14 620.06 526.41 631.13
  C 522.39 640.54 510.62 645.35 500.97 646.48
  Q 458.96 651.39 427.03 625.28
  Q 426.53 624.87 426.53 625.51
  L 426.59 672.87
  A 0.80 0.78 -77.8 0 0 427.04 673.59
  C 453.51 685.57 484.90 687.99 514.23 684.11
  C 553.06 678.99 582.10 656.38 578.86 613.38
  C 575.58 569.79 533.91 556.80 501.32 540.87
  C 490.85 535.76 479.67 529.39 477.06 518.45
  C 472.27 498.44 494.97 491.02 509.99 490.04
  Q 541.84 487.96 568.53 504.95
  Q 569.02 505.26 569.02 504.69
  L 568.99 460.51
  A 0.74 0.72 10.5 0 0 568.51 459.83
  C 525.66 444.13 435.46 444.38 426.42 506.92
  Z
  M 698.27 637.33
  Q 696.64 625.17 692.40 611.32
  Q 668.61 533.63 644.74 455.71
  A 0.99 0.98 -8.2 0 0 643.79 455.01
  L 592.87 455.01
  A 0.35 0.35 -9.5 0 0 592.54 455.47
  L 669.86 681.33
  A 0.55 0.54 80.0 0 0 670.37 681.69
  L 724.11 681.61
  A 0.71 0.70 -79.9 0 0 724.77 681.14
  L 803.10 455.72
  A 0.36 0.36 9.3 0 0 802.76 455.25
  L 753.51 455.26
  A 0.59 0.59 -81.2 0 0 752.95 455.67
  Q 727.71 537.72 702.48 619.75
  Q 700.45 626.38 699.05 637.35
  C 699.02 637.62 698.93 637.76 698.67 637.78
  A 0.50 0.35 83.6 0 1 698.27 637.33
  Z"
/>
<path fill="#2b2a29" d="
  M 593.75 21.23
  C 691.43 115.94 789.39 210.38 886.77 305.39
  Q 887.64 306.25 886.42 306.25
  Q 760.88 306.26 635.25 306.25
  C 616.15 306.25 599.67 294.98 594.71 276.27
  Q 593.26 270.77 593.26 258.97
  Q 593.24 140.14 593.25 21.44
  Q 593.25 20.76 593.75 21.23
  Z"
/>
</svg>
