<svg width="22" height="25" viewBox="0 0 22 25" fill="none" xmlns="http://www.w3.org/2000/svg">
<path d="M22 3.90625V6.25C22 8.4082 17.0746 10.1562 11 10.1562C4.92545 10.1562 0 8.4082 0 6.25V3.90625C0 1.74902 4.92545 0 11 0C17.0746 0 22 1.74902 22 3.90625ZM19.3089 10.4834C20.2862 10.1221 21.2683 9.6582 22 9.08691V14.0625C22 16.2207 17.0746 17.9688 11 17.9688C4.92545 17.9688 0 16.2207 0 14.0625V9.08691C0.73317 9.6582 1.67062 10.1221 2.69353 10.4834C4.89402 11.2646 7.83259 11.7188 11 11.7188C14.1674 11.7188 17.104 11.2646 19.3089 10.4834ZM2.69353 18.2959C4.89402 19.0771 7.83259 19.5312 11 19.5312C14.1674 19.5312 17.104 19.0771 19.3089 18.2959C20.2862 17.9346 21.2683 17.4707 22 16.8994V21.0938C22 23.252 17.0746 25 11 25C4.92545 25 0 23.252 0 21.0938V16.8994C0.73317 17.4707 1.67062 17.9346 2.69353 18.2959Z" fill="white"/>
</svg>
