<svg width="25" height="23" viewBox="0 0 25 23" fill="none" xmlns="http://www.w3.org/2000/svg">
<path d="M1.96055 0.910215C1.2877 1.11916 0.707656 1.6299 0.324825 2.31477L0 2.89516V7.01596V11.1368L0.359628 11.7636C0.777261 12.5181 1.43851 13.0288 2.14617 13.1449L2.66821 13.2262L2.72621 14.5379C2.78422 15.8612 2.90023 16.1514 3.27146 16.0121C3.35266 15.9888 4.21113 15.362 5.18561 14.6307L6.96055 13.2958L11.4269 13.261C15.4292 13.2262 15.9397 13.203 16.3573 13.0172C16.9489 12.7502 17.413 12.3092 17.7262 11.7171C17.9698 11.2644 17.9814 11.1368 17.9814 7.01596C17.9814 3.1041 17.9698 2.74426 17.761 2.37281C17.4594 1.80402 17.0185 1.35131 16.4733 1.06112C16.0093 0.805744 15.9281 0.805744 9.22272 0.782529C3.89791 0.759314 2.33178 0.794137 1.96055 0.910215Z" fill="white"/>
<path d="M19.5243 9.53476C19.4547 11.8447 19.2691 12.4251 18.2598 13.4234C17.0649 14.619 17.1113 14.619 12.4478 14.6538L8.41064 14.6887L8.42225 16.395C8.42225 17.3817 8.48025 18.2639 8.56146 18.4728C8.64266 18.6818 8.93269 19.088 9.21111 19.3782C9.98837 20.1792 10.348 20.2488 13.7819 20.2488H16.6589L18.3062 21.5025C20.2668 22.9999 20.4292 23.1044 20.6612 22.907C20.7772 22.8026 20.8236 22.4659 20.8236 21.5257V20.272L21.9025 20.2256C23.4454 20.156 24.2227 19.6917 24.7563 18.5077C24.9767 18.0201 25 17.7647 25 13.9806C25 10.1964 24.9767 9.94104 24.7563 9.45351C24.4663 8.80347 24.0371 8.35076 23.4338 8.02574C23.0394 7.80519 22.7378 7.77037 21.2761 7.73554L19.5707 7.68911L19.5243 9.53476Z" fill="white"/>
</svg>
