<svg width="25" height="25" viewBox="0 0 25 25" fill="none" xmlns="http://www.w3.org/2000/svg">
<rect x="16.436" width="8.56411" height="8.56411" rx="1" fill="white"/>
<rect x="16.436" y="16.0577" width="8.56411" height="8.56411" rx="1" fill="white"/>
<rect y="8.02882" width="8.56411" height="8.56411" rx="1" fill="white"/>
<line x1="0.724121" y1="11.8813" x2="12.4998" y2="11.8813" stroke="white" stroke-width="3"/>
<path fill-rule="evenodd" clip-rule="evenodd" d="M23.7396 4.35242C23.7396 4.9047 23.2919 5.35242 22.7396 5.35242H15.4287C14.8764 5.35242 14.4287 5.80013 14.4287 6.35242L14.4287 17.4102C14.4287 17.9625 14.8764 18.4102 15.4287 18.4102H22.7396C23.2919 18.4102 23.7396 18.8579 23.7396 19.4102V20.4102C23.7396 20.9625 23.2919 21.4102 22.7396 21.4102H11.964C11.6684 21.4102 11.4287 21.1705 11.4287 20.8749V18.4102V5.35242V4.81719V3.35242C11.4287 2.80013 11.8764 2.35242 12.4287 2.35242H22.7396C23.2919 2.35242 23.7396 2.80013 23.7396 3.35242V4.35242Z" fill="white"/>
</svg>
