<svg width="25" height="26" viewBox="0 0 25 26" fill="none" xmlns="http://www.w3.org/2000/svg">
<path d="M10.119 0.778809C8.475 0.778809 7.14286 2.11095 7.14286 3.755V5.54071H2.38095C1.06548 5.54071 0 6.60619 0 7.92167V11.4931C0 12.1502 0.533333 12.6836 1.19048 12.6836H1.61598C3.17312 12.6836 4.58968 13.804 4.74563 15.3528C4.9242 17.135 3.53095 18.636 1.78571 18.636H1.19048C0.533333 18.636 0 19.1693 0 19.8264V23.3979C0 24.7133 1.06548 25.7788 2.38095 25.7788H5.95238C6.60952 25.7788 7.14286 25.2455 7.14286 24.5883V24.1628C7.14286 22.6057 8.26332 21.1891 9.81213 21.0332C11.5943 20.8546 13.0952 22.2479 13.0952 23.9931V24.5883C13.0952 25.2455 13.6286 25.7788 14.2857 25.7788H17.8571C19.1726 25.7788 20.2381 24.7133 20.2381 23.3979V18.636H22.0238C23.6679 18.636 25 17.3038 25 15.6598C25 14.0157 23.6679 12.6836 22.0238 12.6836H20.2381V7.92167C20.2381 6.60619 19.1726 5.54071 17.8571 5.54071H13.0952V3.755C13.0952 2.11095 11.7631 0.778809 10.119 0.778809Z" fill="white"/>
</svg>
