<svg width="25" height="22" viewBox="0 0 25 22" fill="none" xmlns="http://www.w3.org/2000/svg">
<path d="M1.04351 0.684748C0.820673 0.748112 0.506074 0.950876 0.361882 1.15364C-0.227993 1.93936 -0.214884 1.9647 1.88245 5.98198L3.82248 9.72046L4.54344 9.80917C4.93669 9.85986 5.99846 9.98659 6.90294 10.088C7.80741 10.202 10.0096 10.4682 11.8054 10.6709C13.5882 10.8864 15.1219 11.1018 15.2136 11.1398C15.3578 11.2412 14.3747 11.3679 8.54148 12.0649C6.74564 12.2804 4.93669 12.4958 4.54344 12.5465L3.82248 12.6352L1.88245 16.3737C0.257015 19.4912 -0.0575843 20.1629 0.00795729 20.4923C0.125932 21.0626 0.506074 21.4808 1.08284 21.6836C1.58096 21.8483 1.63339 21.8357 3.03598 21.2781C6.71942 19.7953 24.1928 12.4831 24.455 12.3184C25.0973 11.9002 25.189 10.6836 24.6385 10.1387C24.3894 9.91055 2.34124 0.735439 1.79069 0.634056C1.60717 0.608711 1.27946 0.621384 1.04351 0.684748Z" fill="white"/>
</svg>
