<svg width="25" height="27" viewBox="0 0 25 27" fill="none" xmlns="http://www.w3.org/2000/svg">
<path d="M24.6807 16.9744L22.4377 15.6792C22.6641 14.4577 22.6641 13.2046 22.4377 11.9831L24.6807 10.6879C24.9387 10.5404 25.0545 10.2351 24.9703 9.95074C24.3858 8.07635 23.3907 6.38097 22.0902 4.96991C21.8902 4.75404 21.5637 4.70139 21.311 4.84882L19.068 6.14404C18.1256 5.33321 17.041 4.70666 15.8668 4.29598V1.71079C15.8668 1.41594 15.6615 1.15795 15.3719 1.09477C13.4396 0.663025 11.4599 0.684085 9.62237 1.09477C9.33279 1.15795 9.12745 1.41594 9.12745 1.71079V4.30124C7.95859 4.71719 6.87397 5.34374 5.92624 6.14931L3.68856 4.85408C3.43056 4.70666 3.10939 4.75404 2.90931 4.97518C1.60882 6.38097 0.613711 8.07635 0.0292805 9.95601C-0.060227 10.2403 0.0608713 10.5457 0.318863 10.6931L2.56181 11.9884C2.33541 13.2099 2.33541 14.463 2.56181 15.6845L0.318863 16.9797C0.0608713 17.1271 -0.0549618 17.4325 0.0292805 17.7168C0.613711 19.5912 1.60882 21.2866 2.90931 22.6977C3.10939 22.9135 3.43583 22.9662 3.68856 22.8188L5.93151 21.5235C6.87397 22.3344 7.95859 22.9609 9.13271 23.3716V25.962C9.13271 26.2569 9.33805 26.5149 9.62764 26.5781C11.5599 27.0098 13.5396 26.9888 15.3772 26.5781C15.6668 26.5149 15.8721 26.2569 15.8721 25.962V23.3716C17.041 22.9557 18.1256 22.3291 19.0733 21.5235L21.3163 22.8188C21.5742 22.9662 21.8954 22.9188 22.0955 22.6977C23.396 21.2919 24.3911 19.5965 24.9755 17.7168C25.0545 17.4272 24.9387 17.1219 24.6807 16.9744ZM12.4971 18.0433C10.1752 18.0433 8.28503 16.1531 8.28503 13.8312C8.28503 11.5092 10.1752 9.61904 12.4971 9.61904C14.8191 9.61904 16.7093 11.5092 16.7093 13.8312C16.7093 16.1531 14.8191 18.0433 12.4971 18.0433Z" fill="white"/>
</svg>
