<svg width="25" height="22" viewBox="0 0 25 22" fill="none" xmlns="http://www.w3.org/2000/svg">
<path d="M8.56573 0.115829C8.17224 0.183758 7.55886 0.659258 7.28111 1.10079C7.14223 1.3159 7.06121 1.65555 7.06121 2.01783V2.5839L4.87388 4.72366L2.68654 6.86341L2.06159 6.88605C0.314032 6.93134 -0.565532 8.87863 0.591789 10.1579C1.86484 11.5845 4.16791 10.6674 4.16791 8.74277C4.16791 8.24463 4.16791 8.24463 6.34368 6.13884L8.50787 4.03305L9.19069 4.02173L9.88508 4.01041L11.9451 5.61805C13.3339 6.69359 13.9936 7.25966 13.9473 7.37287C13.8431 7.65591 14.1209 8.40313 14.4796 8.79938C15.1856 9.59188 16.2503 9.72774 17.1531 9.13902C17.6738 8.8107 17.9285 8.36916 18.021 7.64459L18.0905 7.11248L20.0695 5.58409L22.0485 4.05569L22.8239 4.04437C23.4605 4.04437 23.6803 3.98776 24.0738 3.72737C25.5321 2.78769 25.1617 0.59133 23.4836 0.149794C22.2684 -0.178529 20.9491 0.749829 20.9491 1.91594C20.9491 2.3688 20.9259 2.39144 19.6529 3.3764C18.9353 3.93116 18.0095 4.64441 17.5928 4.97273L16.8406 5.55012L15.9726 5.5388L15.093 5.51616L13.1024 3.96512C11.2623 2.5273 11.1118 2.39144 11.1118 2.0518C11.1118 1.59894 10.7646 0.851723 10.4406 0.568686C9.97766 0.161115 9.2717 -0.00870705 8.56573 0.115829Z" fill="white"/>
<path d="M7.31617 8.27865C7.23515 8.33525 7.11942 8.55036 7.06155 8.76547C6.89953 9.28626 6.9111 20.6756 7.06155 21.2191C7.21201 21.7398 7.31617 21.7738 9.17945 21.7738C10.4988 21.7738 10.6724 21.7512 10.8807 21.5474C11.1122 21.3209 11.1122 21.1738 11.1122 14.9809C11.1122 8.78811 11.1122 8.64093 10.8807 8.41451C10.6724 8.21072 10.4988 8.18808 9.06372 8.18808C8.18416 8.18808 7.39718 8.23336 7.31617 8.27865Z" fill="white"/>
<path d="M21.1345 8.40318C20.9609 8.59565 20.9377 9.16172 20.9493 14.9923C20.9493 20.7322 20.9724 21.3889 21.146 21.57C21.3081 21.7512 21.5395 21.7738 22.9399 21.7738C24.3865 21.7738 24.5601 21.7512 24.7684 21.5474C24.9999 21.3209 24.9999 21.1738 24.9999 14.9809C24.9999 8.78811 24.9999 8.64093 24.7684 8.41451C24.5601 8.21072 24.3865 8.18808 22.9399 8.18808C21.5164 8.18808 21.3081 8.21072 21.1345 8.40318Z" fill="white"/>
<path d="M14.2251 13.8262L13.9474 14.0526L13.9126 17.6302L13.8779 21.2077L14.1673 21.4908C14.445 21.7625 14.5029 21.7738 16.0305 21.7738C17.4425 21.7738 17.6161 21.7512 17.8244 21.5474C18.0443 21.3323 18.0559 21.1738 18.0559 17.7207C18.0559 14.7885 18.0211 14.0752 17.8938 13.8941C17.7434 13.7016 17.5582 13.679 16.1231 13.645C14.6649 13.611 14.4913 13.6224 14.2251 13.8262Z" fill="white"/>
<path d="M0.487774 15.0941C0.348895 15.1507 0.175297 15.3319 0.117431 15.4904C0.0479916 15.6602 0.00169878 16.9848 0.00169878 18.4792C0.00169878 21.9889 -0.13718 21.7738 2.09645 21.7738C4.34165 21.7738 4.16805 22.0568 4.16805 18.4C4.16805 16.0564 4.13333 15.4337 4.00603 15.2526C3.85558 15.0601 3.67041 15.0375 2.29319 15.0149C1.44835 15.0035 0.638225 15.0375 0.487774 15.0941Z" fill="white"/>
</svg>
