<svg width="25" height="23" viewBox="0 0 25 23" fill="none" xmlns="http://www.w3.org/2000/svg">
<path d="M8.75 11.5289C11.5117 11.5289 13.75 9.1678 13.75 6.25546C13.75 3.34312 11.5117 0.982025 8.75 0.982025C5.98828 0.982025 3.75 3.34312 3.75 6.25546C3.75 9.1678 5.98828 11.5289 8.75 11.5289ZM10.7305 13.5064H6.76953C3.03008 13.5064 0 16.7035 0 20.6462C0 21.4372 0.60625 22.0758 1.35391 22.0758H16.1445C16.8945 22.0758 17.5 21.4372 17.5 20.6462C17.5 16.7035 14.4688 13.5064 10.7305 13.5064ZM18.7148 14.1656H15.8301C17.625 15.7188 18.75 18.0424 18.75 20.6462C18.75 21.1735 18.6016 21.6597 18.3594 22.0758H23.75C24.4414 22.0758 25 21.4825 25 20.7203C25 17.1154 22.2031 14.1656 18.7148 14.1656ZM16.875 11.5289C19.293 11.5289 21.25 9.46484 21.25 6.91464C21.25 4.36444 19.293 2.30038 16.875 2.30038C15.8941 2.30038 14.9984 2.65284 14.2688 3.22777C14.7188 4.13908 15 5.15958 15 6.25546C15 7.71884 14.534 9.06274 13.766 10.1574C14.5586 11.0016 15.6562 11.5289 16.875 11.5289Z" fill="white"/>
</svg>
