<?xml version="1.0" encoding="UTF-8" standalone="no"?>
<!DOCTYPE svg PUBLIC "-//W3C//DTD SVG 1.1//EN" "http://www.w3.org/Graphics/SVG/1.1/DTD/svg11.dtd">
<svg xmlns="http://www.w3.org/2000/svg" version="1.1" viewBox="0 0 512 512">
<path fill="#2b2a29" d="
  M 76.94 497.81
  C 69.51 491.80 68.51 485.34 68.51 475.29
  Q 68.50 259.47 68.49 43.64
  Q 68.49 30.07 70.06 25.53
  C 73.77 14.78 83.08 10.97 93.94 10.98
  Q 189.10 11.02 284.27 10.99
  A 0.47 0.47 -0.0 0 1 284.74 11.46
  Q 284.78 74.16 284.72 136.99
  Q 284.71 145.23 286.09 149.35
  Q 289.54 159.66 299.72 163.09
  Q 304.02 164.54 313.43 164.53
  Q 378.33 164.44 443.22 164.55
  A 0.51 0.49 0.0 0 1 443.73 165.04
  Q 443.76 320.36 443.76 475.64
  C 443.76 487.61 440.74 497.45 428.72 501.51
  Q 424.31 503.00 414.09 503.00
  Q 252.93 503.00 91.75 503.01
  Q 83.37 503.01 76.94 497.81
  Z
  M 152.21 301.12
  Q 152.61 299.89 152.85 301.16
  Q 153.61 305.27 155.60 308.92
  Q 164.07 324.46 172.46 340.06
  A 0.79 0.78 76.4 0 0 173.16 340.49
  L 197.55 340.49
  Q 198.35 340.49 197.93 339.81
  L 167.29 290.07
  A 0.98 0.97 -45.4 0 1 167.29 289.04
  L 196.86 240.55
  Q 197.37 239.71 196.39 239.72
  L 173.99 239.75
  A 0.84 0.84 -75.7 0 0 173.25 240.19
  Q 165.63 254.02 158.12 267.90
  Q 155.42 272.88 153.87 278.18
  Q 153.50 279.46 153.08 278.20
  C 148.83 265.41 141.41 252.44 135.39 240.28
  A 0.83 0.81 76.3 0 0 134.66 239.82
  L 109.51 239.78
  Q 109.04 239.78 109.28 240.19
  L 138.12 289.46
  A 1.03 1.03 -44.1 0 1 138.10 290.55
  L 106.51 339.77
  Q 106.04 340.49 106.90 340.49
  L 131.26 340.50
  A 0.91 0.90 -75.3 0 0 132.05 340.03
  Q 140.74 324.01 149.31 307.90
  Q 151.12 304.49 152.21 301.12
  Z
  M 229.23 258.51
  L 229.38 258.49
  A 0.44 0.29 81.3 0 1 229.72 258.87
  Q 231.20 267.78 235.69 280.07
  Q 246.61 309.93 257.51 339.86
  A 0.76 0.71 79.5 0 0 258.19 340.36
  L 274.37 340.38
  A 0.73 0.70 -80.1 0 0 275.04 339.89
  Q 287.32 305.61 299.43 271.27
  Q 300.62 267.90 302.49 258.75
  Q 302.68 257.82 303.10 258.20
  A 1.09 0.71 -74.2 0 1 303.35 259.01
  C 301.73 282.66 302.43 307.28 302.53 339.95
  A 0.51 0.50 0.0 0 0 303.04 340.45
  L 323.23 340.46
  A 0.49 0.49 0.0 0 0 323.72 339.97
  L 323.73 240.54
  A 0.50 0.49 90.0 0 0 323.24 240.04
  L 293.82 240.05
  A 0.73 0.73 -79.5 0 0 293.14 240.52
  Q 281.63 272.24 270.40 304.06
  C 269.25 307.32 268.52 310.84 267.65 314.23
  A 0.57 0.37 -78.6 0 1 267.22 314.67
  Q 266.98 314.65 266.91 314.31
  Q 265.23 306.82 264.02 303.37
  Q 253.01 271.93 241.82 240.52
  A 0.70 0.68 -9.3 0 0 241.16 240.06
  L 210.82 240.05
  A 0.51 0.50 -0.0 0 0 210.31 240.55
  L 210.31 339.98
  A 0.62 0.60 0.5 0 0 210.92 340.58
  L 228.97 340.62
  A 0.63 0.61 0.5 0 0 229.60 340.02
  Q 230.23 298.73 229.07 258.72
  A 0.20 0.18 85.3 0 1 229.23 258.51
  Z
  M 369.28 322.69
  A 0.55 0.55 -89.9 0 1 368.73 322.14
  L 368.70 240.41
  A 0.52 0.51 90.0 0 0 368.19 239.89
  L 347.77 239.80
  A 0.51 0.51 0.0 0 0 347.26 240.31
  L 347.25 339.99
  A 0.50 0.49 0.0 0 0 347.75 340.48
  L 405.60 340.45
  A 0.52 0.52 -89.4 0 0 406.12 339.94
  L 406.20 323.16
  A 0.44 0.43 0.0 0 0 405.76 322.73
  L 369.28 322.69
  Z"
/>
<path fill="#2b2a29" d="
  M 440.42 150.32
  C 441.11 150.98 442.29 151.75 443.07 152.72
  Q 443.69 153.50 442.69 153.50
  Q 383.96 153.49 325.17 153.51
  Q 313.79 153.51 309.52 151.93
  C 299.65 148.27 296.73 139.84 296.74 129.70
  Q 296.76 70.63 296.75 11.68
  Q 296.75 10.96 297.26 11.46
  Q 369.00 80.74 440.42 150.32
  Z"
/>
</svg>
