<svg width="32" height="37" viewBox="0 0 32 37" fill="none" xmlns="http://www.w3.org/2000/svg">
  <path d="M26.875 0.730469V0.867188L21.4648 4.32422V4.38281H21.6016C22.487 4.01823 23.2227 3.60807 23.8086 3.15234C27.181 2.48828 29.707 2.15625 31.3867 2.15625H31.6992V2.29297L22.1094 6.92188V7H22.1875L28.125 4.96875L22.3047 8.75781C19.375 10.2552 15.0716 13.276 9.39453 17.8203C8.35286 19.6562 7.83203 21.0234 7.83203 21.9219C7.64974 22.4427 7.45443 23.3346 7.24609 24.5977H7.10938V24.207H7.05078V26.043C7.05078 27.1497 6.875 28.0156 6.52344 28.6406H7.30469L9.58984 28.7188C10.3971 28.7188 12.3958 28.1328 15.5859 26.9609C17.5911 26.0885 19.6615 24.8906 21.7969 23.3672C22.7083 22.6771 23.6393 21.8503 24.5898 20.8867C24.1602 21.1081 22.1419 21.4141 18.5352 21.8047C13.7435 22.0781 11.3477 22.319 11.3477 22.5273L9.92188 22.8398V22.7812C10.6641 21.9609 12.6628 21.0039 15.918 19.9102V19.8516H15.8594C13.8021 20.5417 12.2982 20.8867 11.3477 20.8867L11.0156 20.8281V20.6914C11.5885 20.1966 14.1146 19.1094 18.5938 17.4297L28.125 13.25C29.9349 12.5078 31.0872 12.1367 31.582 12.1367H31.6406L28.3789 18.6016L29.6094 17.0977H29.6875C29.6875 17.5404 28.3138 20.1966 25.5664 25.0664C21.9336 30.3398 17.1094 34.2982 11.0938 36.9414H10.7031L10.5078 36.8633L10.1758 36.9414L8.47656 37V36.8633C9.08854 36.6419 9.50521 36.3164 9.72656 35.8867H9.58984C8.88672 35.8867 6.84245 35.5417 3.45703 34.8516L2.34375 34.7734C1.30208 34.8255 0.520833 34.9167 0 35.0469V34.9688C0 34.0703 0.540365 31.8112 1.62109 28.1914L1.75781 26.4336L1.36719 21.082C1.36719 20.7305 2.58464 19.0378 5.01953 16.0039C5.95703 14.9753 7.13542 13.9531 8.55469 12.9375L8.75 12.6641H8.67188C5.82031 13.5755 3.38542 14.819 1.36719 16.3945L0.839844 16.7852H0.78125C1.15885 15.6393 3.09245 13.7253 6.58203 11.043C9.05599 9.51953 10.5339 8.75781 11.0156 8.75781V8.67969C9.71354 8.67969 7.87109 9.09635 5.48828 9.92969C11.3346 6.73958 16.4648 4.23958 20.8789 2.42969C23.2878 1.59635 25.2865 1.02995 26.875 0.730469ZM20.6055 4.77344C20.6055 4.85156 20.4753 4.9362 20.2148 5.02734V5.10547H20.293L20.7422 4.83203V4.77344H20.6055ZM16.1719 19.7148V19.7734H16.3086V19.7148H16.1719ZM15.9766 19.7734V19.8516H16.1133V19.7734H15.9766Z" fill="url(#paint0_linear_951_1170)"/>
<defs>
    <linearGradient id="paint0_linear_951_1170" x1="46.3158" y1="-10" x2="-5.35684" y2="41.3744" gradientUnits="userSpaceOnUse">
      <stop stop-color="white"/>
      <stop offset="1" stop-color="#76BBFE"/>
    </linearGradient>
  </defs>
</svg>
