<svg width="238" height="273" viewBox="0 0 238 273" fill="none" xmlns="http://www.w3.org/2000/svg">
<path d="M201.562 0.978516V2.00391L160.986 27.9316V28.3711H162.012C168.652 25.6367 174.17 22.5605 178.564 19.1426C203.857 14.1621 222.803 11.6719 235.4 11.6719H237.744V12.6973L165.82 47.4141V48H166.406L210.938 32.7656L167.285 61.1836C145.312 72.4141 113.037 95.0703 70.459 129.152C62.6465 142.922 58.7402 153.176 58.7402 159.914C57.373 163.82 55.9082 170.51 54.3457 179.982H53.3203V177.053H52.8809V190.822C52.8809 199.123 51.5625 205.617 48.9258 210.305H54.7852L71.9238 210.891C77.9785 210.891 92.9688 206.496 116.895 197.707C131.934 191.164 147.461 182.18 163.477 170.754C170.312 165.578 177.295 159.377 184.424 152.15C181.201 153.811 166.064 156.105 139.014 159.035C103.076 161.086 85.1074 162.893 85.1074 164.455L74.4141 166.799V166.359C79.9805 160.207 94.9707 153.029 119.385 144.826V144.387H118.945C103.516 149.562 92.2363 152.15 85.1074 152.15L82.6172 151.711V150.686C86.9141 146.975 105.859 138.82 139.453 126.223L210.938 94.875C224.512 89.3086 233.154 86.5254 236.865 86.5254H237.305L212.842 135.012L222.07 123.732H222.656C222.656 127.053 212.354 146.975 191.748 183.498C164.502 223.049 128.32 252.736 83.2031 272.561H80.2734L78.8086 271.975L76.3184 272.561L63.5742 273V271.975C68.1641 270.314 71.2891 267.873 72.9492 264.65H71.9238C66.6504 264.65 51.3184 262.062 25.9277 256.887L17.5781 256.301C9.76562 256.691 3.90625 257.375 0 258.352V257.766C0 251.027 4.05273 234.084 12.1582 206.936L13.1836 193.752L10.2539 153.615C10.2539 150.979 19.3848 138.283 37.6465 115.529C44.6777 107.814 53.5156 100.148 64.1602 92.5312L65.625 90.4805H65.0391C43.6523 97.3164 25.3906 106.643 10.2539 118.459L6.29883 121.389H5.85938C8.69141 112.795 23.1934 98.4395 49.3652 78.3223C67.9199 66.8965 79.0039 61.1836 82.6172 61.1836V60.5977C72.8516 60.5977 59.0332 63.7227 41.1621 69.9727C85.0098 46.0469 123.486 27.2969 156.592 13.7227C174.658 7.47266 189.648 3.22461 201.562 0.978516ZM154.541 31.3008C154.541 31.8867 153.564 32.5215 151.611 33.2051V33.791H152.197L155.566 31.7402V31.3008H154.541ZM121.289 143.361V143.801H122.314V143.361H121.289ZM119.824 143.801V144.387H120.85V143.801H119.824Z" fill="#00499E"/>
</svg>
